<svg width="308" height="308" viewBox="0 0 308 308" fill="none" xmlns="http://www.w3.org/2000/svg">
<g filter="url(#filter0_d_17_15)">
<rect x="4" width="300" height="300" rx="75" fill="#1C50D7"/>
<path fill-rule="evenodd" clip-rule="evenodd" d="M93.2089 112.557C91.597 114.169 91.597 116.782 93.2089 118.394C94.8207 120.006 97.4339 120.006 99.0457 118.394L101.966 115.473L116.556 130.064L104.883 141.738C103.271 143.35 103.271 145.963 104.883 147.575C106.494 149.187 109.107 149.187 110.719 147.575L116.555 141.739L166.17 191.355C172.153 197.339 180.897 198.88 188.302 195.978L192.435 200.111C194.596 202.272 197.657 202.984 200.411 202.248L209.946 211.783C211.558 213.395 214.171 213.395 215.783 211.783C217.395 210.171 217.395 207.558 215.783 205.946L206.247 196.409C206.981 193.656 206.268 190.597 204.109 188.437L199.976 184.305C202.878 176.899 201.337 168.154 195.354 162.17L145.739 112.554L151.577 106.716C153.189 105.104 153.189 102.491 151.577 100.879C149.966 99.2671 147.352 99.2672 145.74 100.879L134.067 112.553L119.477 97.9625L122.393 95.0459C124.005 93.434 124.005 90.8207 122.393 89.2089C120.781 87.597 118.168 87.597 116.556 89.2089L93.2089 112.557ZM129.022 117.597L114.432 103.007L107.01 110.429L121.601 125.02L129.022 117.597ZM140.695 117.599L121.599 136.695L137.315 152.411L156.411 133.315L140.695 117.599ZM143.152 158.248L151.907 167.004L158.537 160.374C160.149 158.762 162.762 158.762 164.374 160.374C165.986 161.985 165.986 164.599 164.374 166.211L157.744 172.841L163.58 178.676L170.21 172.046C171.822 170.434 174.435 170.434 176.047 172.046C177.659 173.657 177.659 176.271 176.047 177.883L169.417 184.513L171.214 186.311C175.131 190.227 180.855 191.235 185.702 189.333L193.331 181.703C195.234 176.856 194.226 171.132 190.309 167.214L162.247 139.152L143.152 158.248ZM199.163 193.594C199.133 193.555 199.1 193.517 199.064 193.481L196.125 190.542C195.876 190.818 195.62 191.089 195.354 191.355C195.088 191.621 194.816 191.878 194.539 192.127L197.479 195.066C197.515 195.102 197.554 195.136 197.593 195.166C197.773 194.846 198 194.545 198.272 194.272C198.544 194 198.844 193.774 199.163 193.594Z" fill="white"/>
</g>
<defs>
<filter id="filter0_d_17_15" x="0" y="0" width="308" height="308" filterUnits="userSpaceOnUse" color-interpolation-filters="sRGB">
<feFlood flood-opacity="0" result="BackgroundImageFix"/>
<feColorMatrix in="SourceAlpha" type="matrix" values="0 0 0 0 0 0 0 0 0 0 0 0 0 0 0 0 0 0 127 0" result="hardAlpha"/>
<feOffset dy="4"/>
<feGaussianBlur stdDeviation="2"/>
<feComposite in2="hardAlpha" operator="out"/>
<feColorMatrix type="matrix" values="0 0 0 0 0 0 0 0 0 0 0 0 0 0 0 0 0 0 0.25 0"/>
<feBlend mode="normal" in2="BackgroundImageFix" result="effect1_dropShadow_17_15"/>
<feBlend mode="normal" in="SourceGraphic" in2="effect1_dropShadow_17_15" result="shape"/>
</filter>
</defs>
</svg>
