<svg width="308" height="308" viewBox="0 0 308 308" fill="none" xmlns="http://www.w3.org/2000/svg">
<g filter="url(#filter0_d_18_37)">
<rect x="4" width="300" height="300" rx="75" fill="#1C50D7"/>
<path fill-rule="evenodd" clip-rule="evenodd" d="M192.687 108.32C194.62 106.403 197.23 105.325 199.952 105.317C202.675 105.31 205.291 106.374 207.235 108.28C209.179 110.185 210.294 112.78 210.341 115.502C210.387 118.224 209.36 120.854 207.482 122.825L152.333 191.762C151.386 192.783 150.242 193.602 148.97 194.17C147.698 194.739 146.325 195.046 144.932 195.071C143.539 195.097 142.156 194.842 140.864 194.321C139.572 193.799 138.398 193.023 137.413 192.038L100.873 155.484C99.855 154.535 99.0385 153.391 98.4722 152.12C97.9059 150.849 97.6014 149.477 97.5768 148.086C97.5523 146.695 97.8082 145.313 98.3293 144.023C98.8504 142.733 99.626 141.561 100.61 140.577C101.594 139.593 102.766 138.817 104.056 138.296C105.346 137.775 106.728 137.519 108.119 137.544C109.51 137.568 110.882 137.873 112.153 138.439C113.424 139.005 114.568 139.822 115.517 140.84L144.445 169.754L192.424 108.624C192.51 108.517 192.588 108.415 192.687 108.32Z" fill="white"/>
</g>
<defs>
<filter id="filter0_d_18_37" x="0" y="0" width="308" height="308" filterUnits="userSpaceOnUse" color-interpolation-filters="sRGB">
<feFlood flood-opacity="0" result="BackgroundImageFix"/>
<feColorMatrix in="SourceAlpha" type="matrix" values="0 0 0 0 0 0 0 0 0 0 0 0 0 0 0 0 0 0 127 0" result="hardAlpha"/>
<feOffset dy="4"/>
<feGaussianBlur stdDeviation="2"/>
<feComposite in2="hardAlpha" operator="out"/>
<feColorMatrix type="matrix" values="0 0 0 0 0 0 0 0 0 0 0 0 0 0 0 0 0 0 0.25 0"/>
<feBlend mode="normal" in2="BackgroundImageFix" result="effect1_dropShadow_18_37"/>
<feBlend mode="normal" in="SourceGraphic" in2="effect1_dropShadow_18_37" result="shape"/>
</filter>
</defs>
</svg>
