<svg width="308" height="308" viewBox="0 0 308 308" fill="none" xmlns="http://www.w3.org/2000/svg">
<g filter="url(#filter0_d_17_2)">
<rect x="4" width="300" height="300" rx="75" fill="#1C50D7"/>
<path d="M91.9802 106.008C108.904 106.076 122.537 119.818 122.469 136.742L114.835 132.119M65.3925 193.364C48.4688 193.297 34.8358 179.554 34.9034 162.631L42.5379 167.253M45.6995 142.12L55.8271 124.756L45.8816 107.486M73.6254 124.827L55.7833 124.755" stroke="white" stroke-width="6.55964" stroke-linecap="round" stroke-linejoin="round"/>
<path d="M93.6049 191.946L103.732 174.626L93.7869 157.312M121.531 174.697L103.689 174.625M35.957 128.787L41.7312 139.305C43.0337 141.672 46.3493 143.653 49.0606 143.664L60.1682 143.708C62.8795 143.719 66.2107 141.808 67.5322 139.409L73.3903 128.936C74.6674 126.711 74.6821 123.038 73.423 120.759L67.6487 110.24C66.3463 107.874 63.0306 105.892 60.3193 105.882L49.2117 105.837C46.5004 105.826 43.1692 107.737 41.8477 110.137L35.9896 120.609C34.7563 122.835 34.7416 126.508 35.957 128.787Z" stroke="white" stroke-width="6.55964" stroke-linecap="round" stroke-linejoin="round"/>
<path d="M83.8623 178.613L89.6366 189.132C90.9391 191.498 94.2547 193.48 96.966 193.49L108.074 193.535C110.785 193.546 114.116 191.635 115.438 189.235L121.296 178.763C122.573 176.538 122.587 172.864 121.328 170.585L115.554 160.067C114.252 157.7 110.936 155.719 108.225 155.708L97.1171 155.664C94.4058 155.653 91.0746 157.564 89.7531 159.963L83.895 170.436C82.6615 172.705 82.6468 176.378 83.8623 178.613Z" stroke="white" stroke-width="6.55964" stroke-linecap="round" stroke-linejoin="round"/>
<path d="M247.6 162.4C250.5 162.1 252.7 159.6 252.6 156.6C252.5 153.6 250 151.2 247 151.2H246.8C243.7 151.3 241.3 153.9 241.4 157C241.5 158.5 242.1 159.8 243 160.7C239.6 167.4 234.4 172.3 226.6 176.4C221.3 179.2 215.8 180.2 210.3 179.5C205.8 178.9 202.3 176.9 200.1 173.6C196.9 168.7 196.6 163.4 199.3 158.1C201.2 154.3 204.2 151.5 206.1 150.1C205.7 148.8 205.1 146.6 204.8 145C190.3 155.5 191.8 169.7 196.2 176.4C199.5 181.4 206.2 184.5 213.6 184.5C215.6 184.5 217.6 184.3 219.6 183.8C232.4 181.3 242.1 173.7 247.6 162.4Z" fill="white"/>
<path d="M265.2 150C257.6 141.1 246.4 136.2 233.6 136.2H232C231.1 134.4 229.2 133.2 227.1 133.2H226.9C223.8 133.3 221.4 135.9 221.5 139C221.6 142 224.1 144.4 227.1 144.4H227.3C229.5 144.3 231.4 142.9 232.2 141H234C241.6 141 248.8 143.2 255.3 147.5C260.3 150.8 263.9 155.1 265.9 160.3C267.6 164.5 267.5 168.6 265.7 172.1C262.9 177.4 258.2 180.3 252 180.3C248 180.3 244.2 179.1 242.2 178.2C241.1 179.2 239.1 180.8 237.7 181.8C242 183.8 246.4 184.9 250.6 184.9C260.2 184.9 267.3 179.6 270 174.3C272.9 168.5 272.7 158.5 265.2 150Z" fill="white"/>
<path d="M214.4 164.1C214.5 167.1 217 169.5 220 169.5H220.2C223.3 169.4 225.7 166.8 225.6 163.7C225.5 160.7 223 158.3 220 158.3H219.8C219.6 158.3 219.3 158.3 219.1 158.4C215 151.6 213.3 144.2 213.9 136.2C214.3 130.2 216.3 125 219.8 120.7C222.7 117 228.3 115.2 232.1 115.1C242.7 114.9 247.2 128.1 247.5 133.4C248.8 133.7 251 134.4 252.5 134.9C251.3 118.7 241.3 110.3 231.7 110.3C222.7 110.3 214.4 116.8 211.1 126.4C206.5 139.2 209.5 151.5 215.1 161.2C214.6 161.9 214.3 163 214.4 164.1Z" fill="white"/>
<path d="M156.022 172.76C154.422 172.76 153.089 172.6 152.022 172.28C150.956 171.907 150.129 171.4 149.542 170.76C148.956 170.12 148.529 169.347 148.262 168.44C148.049 167.48 147.942 166.387 147.942 165.16C147.942 164.36 147.969 163.56 148.022 162.76C148.076 161.96 148.182 160.68 148.342 158.92H137.702C137.116 158.92 136.822 158.627 136.822 158.04C136.822 157.933 136.822 157.827 136.822 157.72C136.822 157.613 136.822 157.453 136.822 157.24C136.822 157.027 136.822 156.733 136.822 156.36C136.876 155.987 136.929 155.453 136.982 154.76C137.036 154.067 137.116 153.4 137.222 152.76C137.382 152.067 137.649 151.453 138.022 150.92C138.449 150.387 139.036 149.96 139.782 149.64C140.529 149.32 141.516 149.16 142.742 149.16H149.142C149.249 147.613 149.382 145.907 149.542 144.04C149.702 142.173 149.862 140.04 150.022 137.64C150.076 136.467 150.182 135.8 150.342 135.64C150.556 135.427 151.062 135.32 151.862 135.32C153.516 135.32 154.849 135.48 155.862 135.8C156.929 136.12 157.756 136.6 158.342 137.24C158.982 137.88 159.409 138.653 159.622 139.56C159.889 140.467 160.022 141.48 160.022 142.6C160.022 143.347 159.996 144.173 159.942 145.08C159.889 145.987 159.782 147.347 159.622 149.16H170.102C170.422 149.16 170.716 149.267 170.982 149.48C171.249 149.64 171.382 149.907 171.382 150.28L171.142 153.56C171.036 155.16 170.582 156.467 169.782 157.48C169.036 158.44 167.462 158.92 165.062 158.92H158.742L157.782 171.16C157.729 171.8 157.596 172.227 157.382 172.44C157.169 172.653 156.716 172.76 156.022 172.76Z" fill="white"/>
</g>
<defs>
<filter id="filter0_d_17_2" x="0" y="0" width="308" height="308" filterUnits="userSpaceOnUse" color-interpolation-filters="sRGB">
<feFlood flood-opacity="0" result="BackgroundImageFix"/>
<feColorMatrix in="SourceAlpha" type="matrix" values="0 0 0 0 0 0 0 0 0 0 0 0 0 0 0 0 0 0 127 0" result="hardAlpha"/>
<feOffset dy="4"/>
<feGaussianBlur stdDeviation="2"/>
<feComposite in2="hardAlpha" operator="out"/>
<feColorMatrix type="matrix" values="0 0 0 0 0 0 0 0 0 0 0 0 0 0 0 0 0 0 0.25 0"/>
<feBlend mode="normal" in2="BackgroundImageFix" result="effect1_dropShadow_17_2"/>
<feBlend mode="normal" in="SourceGraphic" in2="effect1_dropShadow_17_2" result="shape"/>
</filter>
</defs>
</svg>
