<svg width="308" height="308" viewBox="0 0 308 308" fill="none" xmlns="http://www.w3.org/2000/svg">
<g filter="url(#filter0_d_17_2)">
<rect x="4" width="300" height="300" rx="75" fill="#1C50D7"/>
<path d="M183.623 53.0179C221.231 53.1682 251.526 83.7067 251.376 121.315L234.411 111.043M124.539 247.143C86.9305 246.993 56.6349 216.454 56.7852 178.846L73.7507 189.118M80.7765 133.267L103.282 94.679L81.1811 56.3016M142.834 94.837L103.185 94.6786" stroke="white" stroke-width="14.577" stroke-linecap="round" stroke-linejoin="round"/>
<path d="M187.233 243.992L209.738 205.501L187.638 167.027M249.29 205.659L209.641 205.501M59.1265 103.638L71.9581 127.012C74.8525 132.271 82.2207 136.674 88.2458 136.698L112.929 136.797C118.954 136.821 126.357 132.574 129.294 127.241L142.312 103.97C145.15 99.025 145.182 90.8619 142.384 85.7974L129.553 62.4228C126.658 57.1634 119.29 52.7609 113.265 52.7368L88.5816 52.6382C82.5565 52.6141 75.1538 56.8605 72.2171 62.1937L59.1991 85.4651C56.4583 90.4103 56.4257 98.5734 59.1265 103.638Z" stroke="white" stroke-width="14.577" stroke-linecap="round" stroke-linejoin="round"/>
<path d="M165.583 214.363L178.414 237.737C181.309 242.997 188.677 247.399 194.702 247.423L219.386 247.522C225.411 247.546 232.813 243.3 235.75 237.966L248.768 214.695C251.606 209.75 251.639 201.587 248.841 196.523L236.009 173.148C233.115 167.889 225.746 163.486 219.721 163.462L195.038 163.363C189.013 163.339 181.61 167.586 178.673 172.919L165.655 196.19C162.914 201.233 162.882 209.396 165.583 214.363Z" stroke="white" stroke-width="14.577" stroke-linecap="round" stroke-linejoin="round"/>
</g>
<defs>
<filter id="filter0_d_17_2" x="0" y="0" width="308" height="308" filterUnits="userSpaceOnUse" color-interpolation-filters="sRGB">
<feFlood flood-opacity="0" result="BackgroundImageFix"/>
<feColorMatrix in="SourceAlpha" type="matrix" values="0 0 0 0 0 0 0 0 0 0 0 0 0 0 0 0 0 0 127 0" result="hardAlpha"/>
<feOffset dy="4"/>
<feGaussianBlur stdDeviation="2"/>
<feComposite in2="hardAlpha" operator="out"/>
<feColorMatrix type="matrix" values="0 0 0 0 0 0 0 0 0 0 0 0 0 0 0 0 0 0 0.25 0"/>
<feBlend mode="normal" in2="BackgroundImageFix" result="effect1_dropShadow_17_2"/>
<feBlend mode="normal" in="SourceGraphic" in2="effect1_dropShadow_17_2" result="shape"/>
</filter>
</defs>
</svg>
